<svg width="120" height="120" viewBox="0 0 120 120" fill="none" xmlns="http://www.w3.org/2000/svg">
<path d="M60 69.2775C65.1777 69.2775 69.375 65.0802 69.375 59.9025C69.375 54.7248 65.1777 50.5275 60 50.5275C54.8223 50.5275 50.625 54.7248 50.625 59.9025C50.625 65.0802 54.8223 69.2775 60 69.2775Z" fill="#81D8F7"/>
<path d="M60 81.3975C48.7318 81.6701 37.4917 80.1511 26.7 76.8975C21.7148 75.3172 17.0653 72.8278 12.9863 69.555C11.4297 68.437 10.1335 66.9954 9.18653 65.3293C8.23955 63.6632 7.66421 61.8119 7.5 59.9025C7.5 53.7037 14.31 47.6287 25.7175 43.6537C36.7977 40.1316 48.3747 38.4245 60 38.5987C71.4701 38.4385 82.892 40.1147 93.8325 43.5637C98.6336 45.0943 103.125 47.4635 107.1 50.5612C108.63 51.6271 109.907 53.0165 110.84 54.6307C111.773 56.245 112.34 58.0448 112.5 59.9025C112.5 66.345 104.888 72.8737 92.625 76.9312C82.0422 80.0789 71.0394 81.5851 60 81.3975ZM60 43.0837C48.8779 42.9351 37.8031 44.5579 27.1912 47.8912C16.6912 51.555 11.985 56.565 11.985 59.8912C11.985 63.3712 17.0438 68.8425 28.1512 72.6413C38.4753 75.7382 49.2248 77.1798 60 76.9125C70.5615 77.1014 81.0897 75.6723 91.2188 72.675C102.75 68.8537 108 63.375 108 59.9025C107.811 58.7108 107.377 57.5714 106.725 56.5561C106.073 55.5408 105.217 54.6717 104.213 54.0037C100.657 51.2555 96.6439 49.1559 92.3587 47.8012C81.8926 44.5153 70.9687 42.9228 60 43.0837Z" fill="#81D8F7"/>
<path d="M38.7 106.661C36.9506 106.701 35.2219 106.277 33.69 105.431C28.32 102.334 26.46 93.4012 28.7138 81.5325C31.1987 70.1741 35.5043 59.2924 41.4638 49.3087C47.054 39.2929 54.2107 30.2359 62.6625 22.4812C66.3868 19.0864 70.6833 16.3783 75.3525 14.4825C77.0414 13.691 78.8836 13.2807 80.7488 13.2807C82.6139 13.2807 84.4562 13.691 86.145 14.4825C91.7288 17.7 93.5775 27.555 90.9713 40.2037C88.4096 50.9459 84.2159 61.2316 78.5363 70.7025C73.1428 80.6001 66.2114 89.5782 58.0013 97.3012C54.1417 100.829 49.6625 103.612 44.79 105.51C42.8393 106.234 40.7804 106.623 38.7 106.661ZM45.3488 51.5362C39.6641 61.0962 35.5375 71.5001 33.1238 82.3575C31.05 93.2887 33.0413 99.8625 35.9363 101.535C38.9363 103.271 46.2188 101.625 55.0613 93.9C62.8989 86.5011 69.5146 77.907 74.6625 68.4375C80.1035 59.3832 84.1264 49.5493 86.5913 39.2775C89.0438 27.3712 86.925 20.0812 83.9175 18.3487C82.7903 17.9168 81.5857 17.7235 80.38 17.7809C79.1743 17.8384 77.9935 18.1454 76.9125 18.6825C72.7563 20.3975 68.9352 22.8324 65.625 25.875C57.55 33.3029 50.7138 41.9735 45.375 51.5587L45.3488 51.5362Z" fill="#81D8F7"/>
<path d="M81.2887 106.71C76.2075 106.71 69.7537 103.635 63.0337 97.8563C54.4339 90.031 47.1562 80.8665 41.4825 70.7175C35.5977 60.8714 31.3263 50.1471 28.83 38.9513C27.7474 34.0256 27.5468 28.947 28.2375 23.9513C28.3972 22.098 28.9615 20.3024 29.8906 18.691C30.8198 17.0796 32.0911 15.6916 33.615 14.625C39.1912 11.3963 48.6525 14.715 58.3087 23.2875C66.336 30.8707 73.1527 39.6401 78.5212 49.29C84.4024 58.9063 88.7186 69.3958 91.3087 80.3663C92.4379 85.4727 92.6121 90.744 91.8225 95.9138C91.6346 97.8203 91.0367 99.6637 90.0697 101.317C89.1026 102.971 87.7894 104.396 86.22 105.495C84.7131 106.33 83.0112 106.75 81.2887 106.71ZM45.3638 68.46C50.8066 78.1591 57.7586 86.9301 65.9588 94.4438C74.3925 101.7 81.0825 103.26 83.9587 101.569C86.9587 99.825 89.1712 92.7075 86.8912 81.1913C84.3933 70.7173 80.2533 60.7047 74.625 51.525C69.5019 42.2892 62.9953 33.892 55.3312 26.625C46.2412 18.555 38.8687 16.7513 35.865 18.4913C34.9288 19.2521 34.1605 20.1987 33.6086 21.2715C33.0568 22.3442 32.7333 23.5197 32.6587 24.7238C32.0625 29.1791 32.2567 33.7047 33.2325 38.0925C35.6336 48.7993 39.7303 59.0536 45.3675 68.4675L45.3638 68.46Z" fill="#81D8F7"/>
</svg>
